<?xml version="1.0" encoding="UTF-8" standalone="no"?>
<!DOCTYPE svg PUBLIC "-//W3C//DTD SVG 1.1//EN"
 "http://www.w3.org/Graphics/SVG/1.1/DTD/svg11.dtd">
<!-- Generated by graphviz version 2.32.0 (20130801.1934)
 -->
<!-- Title: controllers_diagram Pages: 1 -->
<svg width="463pt" height="219pt"
 viewBox="0.00 0.00 463.00 219.00" xmlns="http://www.w3.org/2000/svg" xmlns:xlink="http://www.w3.org/1999/xlink">
<g id="graph0" class="graph" transform="scale(1 1) rotate(0) translate(4 215)">
<title>controllers_diagram</title>
<polygon fill="white" stroke="white" points="-4,5 -4,-215 460,-215 460,5 -4,5"/>
<!-- _diagram_info -->
<g id="node1" class="node"><title>_diagram_info</title>
<text text-anchor="start" x="255" y="-196.6" font-family="Times,serif" font-size="13.00">Controllers diagram</text>
<text text-anchor="start" x="255" y="-182.6" font-family="Times,serif" font-size="13.00">Date: Aug 14 2013 &#45; 09:55</text>
<text text-anchor="start" x="255" y="-168.6" font-family="Times,serif" font-size="13.00">Migration version: 20130814094438</text>
<text text-anchor="start" x="255" y="-154.6" font-family="Times,serif" font-size="13.00">Generated by RailRoady 1.1.1</text>
<text text-anchor="start" x="255" y="-140.6" font-family="Times,serif" font-size="13.00">http://railroady.prestonlee.com</text>
</g>
<!-- ApplicationController -->
<g id="node2" class="node"><title>ApplicationController</title>
<path fill="none" stroke="black" d="M12,-0.515255C12,-0.515255 184,-0.515255 184,-0.515255 190,-0.515255 196,-6.51526 196,-12.5153 196,-12.5153 196,-81.5153 196,-81.5153 196,-87.5153 190,-93.5153 184,-93.5153 184,-93.5153 12,-93.5153 12,-93.5153 6,-93.5153 0,-87.5153 0,-81.5153 0,-81.5153 0,-12.5153 0,-12.5153 0,-6.51526 6,-0.515255 12,-0.515255"/>
<text text-anchor="middle" x="98" y="-78.3153" font-family="Times,serif" font-size="14.00">ApplicationController</text>
<polyline fill="none" stroke="black" points="0,-70.5153 196,-70.5153 "/>
<text text-anchor="start" x="8" y="-55.3153" font-family="Times,serif" font-size="14.00">_one_time_conditions_valid_8?</text>
<polyline fill="none" stroke="black" points="0,-47.5153 196,-47.5153 "/>
<polyline fill="none" stroke="black" points="0,-23.5153 196,-23.5153 "/>
<text text-anchor="start" x="8" y="-8.31526" font-family="Times,serif" font-size="14.00">_layout</text>
</g>
<!-- PostsController -->
<g id="node3" class="node"><title>PostsController</title>
<path fill="none" stroke="black" d="M225.793,-0.5C225.793,-0.5 305.793,-0.5 305.793,-0.5 311.793,-0.5 317.793,-6.5 317.793,-12.5 317.793,-12.5 317.793,-81.5 317.793,-81.5 317.793,-87.5 311.793,-93.5 305.793,-93.5 305.793,-93.5 225.793,-93.5 225.793,-93.5 219.793,-93.5 213.793,-87.5 213.793,-81.5 213.793,-81.5 213.793,-12.5 213.793,-12.5 213.793,-6.5 219.793,-0.5 225.793,-0.5"/>
<text text-anchor="middle" x="265.793" y="-78.3" font-family="Times,serif" font-size="14.00">PostsController</text>
<polyline fill="none" stroke="black" points="213.793,-70.5 317.793,-70.5 "/>
<text text-anchor="start" x="221.793" y="-55.3" font-family="Times,serif" font-size="14.00">index</text>
<polyline fill="none" stroke="black" points="213.793,-47.5 317.793,-47.5 "/>
<polyline fill="none" stroke="black" points="213.793,-23.5 317.793,-23.5 "/>
<text text-anchor="start" x="221.793" y="-8.3" font-family="Times,serif" font-size="14.00">_layout</text>
</g>
<!-- ApplicationController&#45;&gt;PostsController -->
<g id="edge1" class="edge"><title>ApplicationController&#45;&gt;PostsController</title>
<path fill="none" stroke="black" d="M196.091,-47.0063C202.116,-47.0058 208.039,-47.0053 213.733,-47.0047"/>
</g>
</g>
</svg>
