<?xml version="1.0" encoding="UTF-8" standalone="no"?>
<!DOCTYPE svg PUBLIC "-//W3C//DTD SVG 1.1//EN"
 "http://www.w3.org/Graphics/SVG/1.1/DTD/svg11.dtd">
<!-- Generated by graphviz version 2.32.0 (20130801.1934)
 -->
<!-- Title: models_diagram Pages: 1 -->
<svg width="453pt" height="532pt"
 viewBox="0.00 0.00 452.96 532.00" xmlns="http://www.w3.org/2000/svg" xmlns:xlink="http://www.w3.org/1999/xlink">
<g id="graph0" class="graph" transform="scale(1 1) rotate(0) translate(4 528)">
<title>models_diagram</title>
<polygon fill="white" stroke="white" points="-4,5 -4,-528 449.964,-528 449.964,5 -4,5"/>
<!-- _diagram_info -->
<g id="node1" class="node"><title>_diagram_info</title>
<text text-anchor="start" x="8" y="-509.6" font-family="Times,serif" font-size="13.00">Models diagram</text>
<text text-anchor="start" x="8" y="-495.6" font-family="Times,serif" font-size="13.00">Date: Aug 14 2013 &#45; 09:54</text>
<text text-anchor="start" x="8" y="-481.6" font-family="Times,serif" font-size="13.00">Migration version: 20130814094438</text>
<text text-anchor="start" x="8" y="-467.6" font-family="Times,serif" font-size="13.00">Generated by RailRoady 1.1.1</text>
<text text-anchor="start" x="8" y="-453.6" font-family="Times,serif" font-size="13.00">http://railroady.prestonlee.com</text>
</g>
<!-- Category -->
<g id="node2" class="node"><title>Category</title>
<path fill="none" stroke="black" d="M112,-318.5C112,-318.5 222,-318.5 222,-318.5 228,-318.5 234,-324.5 234,-330.5 234,-330.5 234,-397.5 234,-397.5 234,-403.5 228,-409.5 222,-409.5 222,-409.5 112,-409.5 112,-409.5 106,-409.5 100,-403.5 100,-397.5 100,-397.5 100,-330.5 100,-330.5 100,-324.5 106,-318.5 112,-318.5"/>
<text text-anchor="middle" x="167" y="-394.3" font-family="Times,serif" font-size="14.00">Category</text>
<polyline fill="none" stroke="black" points="100,-386.5 234,-386.5 "/>
<text text-anchor="start" x="108" y="-371.3" font-family="Times,serif" font-size="14.00">id :integer</text>
<text text-anchor="start" x="108" y="-356.3" font-family="Times,serif" font-size="14.00">name :string</text>
<text text-anchor="start" x="108" y="-341.3" font-family="Times,serif" font-size="14.00">created_at :datetime</text>
<text text-anchor="start" x="108" y="-326.3" font-family="Times,serif" font-size="14.00">updated_at :datetime</text>
</g>
<!-- Join -->
<g id="node3" class="node"><title>Join</title>
<path fill="none" stroke="black" d="M207,-1C207,-1 317,-1 317,-1 323,-1 329,-7 329,-13 329,-13 329,-95 329,-95 329,-101 323,-107 317,-107 317,-107 207,-107 207,-107 201,-107 195,-101 195,-95 195,-95 195,-13 195,-13 195,-7 201,-1 207,-1"/>
<text text-anchor="middle" x="262" y="-91.8" font-family="Times,serif" font-size="14.00">Join</text>
<polyline fill="none" stroke="black" points="195,-84 329,-84 "/>
<text text-anchor="start" x="203" y="-68.8" font-family="Times,serif" font-size="14.00">id :integer</text>
<text text-anchor="start" x="203" y="-53.8" font-family="Times,serif" font-size="14.00">category_id :integer</text>
<text text-anchor="start" x="203" y="-38.8" font-family="Times,serif" font-size="14.00">post_id :integer</text>
<text text-anchor="start" x="203" y="-23.8" font-family="Times,serif" font-size="14.00">created_at :datetime</text>
<text text-anchor="start" x="203" y="-8.8" font-family="Times,serif" font-size="14.00">updated_at :datetime</text>
</g>
<!-- Category&#45;&gt;Join -->
<g id="edge1" class="edge"><title>Category&#45;&gt;Join</title>
<path fill="none" stroke="#63f428" d="M162.759,-310.32C161.097,-264.573 163.607,-197.463 186,-144 190.147,-134.1 195.819,-124.495 202.209,-115.486"/>
<ellipse fill="none" stroke="#63f428" cx="162.93" cy="-314.324" rx="4" ry="4"/>
<polygon fill="#63f428" stroke="#63f428" points="202.273,-115.401 211.863,-110.082 205.265,-111.395 208.257,-107.389 208.257,-107.389 208.257,-107.389 205.265,-111.395 204.652,-104.696 202.273,-115.401 202.273,-115.401"/>
</g>
<!-- Post -->
<g id="node4" class="node"><title>Post</title>
<path fill="none" stroke="black" d="M207,-145C207,-145 317,-145 317,-145 323,-145 329,-151 329,-157 329,-157 329,-269 329,-269 329,-275 323,-281 317,-281 317,-281 207,-281 207,-281 201,-281 195,-275 195,-269 195,-269 195,-157 195,-157 195,-151 201,-145 207,-145"/>
<text text-anchor="middle" x="262" y="-265.8" font-family="Times,serif" font-size="14.00">Post</text>
<polyline fill="none" stroke="black" points="195,-258 329,-258 "/>
<text text-anchor="start" x="203" y="-242.8" font-family="Times,serif" font-size="14.00">id :integer</text>
<text text-anchor="start" x="203" y="-227.8" font-family="Times,serif" font-size="14.00">url :string</text>
<text text-anchor="start" x="203" y="-212.8" font-family="Times,serif" font-size="14.00">title :string</text>
<text text-anchor="start" x="203" y="-197.8" font-family="Times,serif" font-size="14.00">description :text</text>
<text text-anchor="start" x="203" y="-182.8" font-family="Times,serif" font-size="14.00">created_at :datetime</text>
<text text-anchor="start" x="203" y="-167.8" font-family="Times,serif" font-size="14.00">updated_at :datetime</text>
<text text-anchor="start" x="203" y="-152.8" font-family="Times,serif" font-size="14.00">user_id :integer</text>
</g>
<!-- Category&#45;&gt;Post -->
<g id="edge2" class="edge"><title>Category&#45;&gt;Post</title>
<path fill="none" stroke="#7f9bc1" d="M201.021,-309.64C205.145,-303.173 209.416,-296.473 213.696,-289.761"/>
<polygon fill="#7f9bc1" stroke="#7f9bc1" points="200.879,-309.863 191.709,-315.876 198.191,-314.079 195.503,-318.295 195.503,-318.295 195.503,-318.295 198.191,-314.079 199.298,-320.714 200.879,-309.863 200.879,-309.863"/>
<polygon fill="#7f9bc1" stroke="#7f9bc1" points="213.736,-289.699 222.906,-283.686 216.424,-285.483 219.112,-281.267 219.112,-281.267 219.112,-281.267 216.424,-285.483 215.318,-278.847 213.736,-289.699 213.736,-289.699"/>
</g>
<!-- Post&#45;&gt;Join -->
<g id="edge5" class="edge"><title>Post&#45;&gt;Join</title>
<path fill="none" stroke="#a01014" d="M262,-136.904C262,-130.287 262,-123.637 262,-117.143"/>
<ellipse fill="none" stroke="#a01014" cx="262" cy="-140.962" rx="4" ry="4"/>
<polygon fill="#a01014" stroke="#a01014" points="262,-117.095 266.5,-107.095 262,-112.095 262,-107.095 262,-107.095 262,-107.095 262,-112.095 257.5,-107.095 262,-117.095 262,-117.095"/>
</g>
<!-- User -->
<g id="node5" class="node"><title>User</title>
<path fill="none" stroke="black" d="M302,-318.5C302,-318.5 412,-318.5 412,-318.5 418,-318.5 424,-324.5 424,-330.5 424,-330.5 424,-397.5 424,-397.5 424,-403.5 418,-409.5 412,-409.5 412,-409.5 302,-409.5 302,-409.5 296,-409.5 290,-403.5 290,-397.5 290,-397.5 290,-330.5 290,-330.5 290,-324.5 296,-318.5 302,-318.5"/>
<text text-anchor="middle" x="357" y="-394.3" font-family="Times,serif" font-size="14.00">User</text>
<polyline fill="none" stroke="black" points="290,-386.5 424,-386.5 "/>
<text text-anchor="start" x="298" y="-371.3" font-family="Times,serif" font-size="14.00">id :integer</text>
<text text-anchor="start" x="298" y="-356.3" font-family="Times,serif" font-size="14.00">username :string</text>
<text text-anchor="start" x="298" y="-341.3" font-family="Times,serif" font-size="14.00">created_at :datetime</text>
<text text-anchor="start" x="298" y="-326.3" font-family="Times,serif" font-size="14.00">updated_at :datetime</text>
</g>
<!-- User&#45;&gt;Post -->
<g id="edge7" class="edge"><title>User&#45;&gt;Post</title>
<path fill="none" stroke="#c8ea5e" d="M324.063,-311.342C319.617,-304.368 314.982,-297.098 310.336,-289.811"/>
<ellipse fill="none" stroke="#c8ea5e" cx="326.346" cy="-314.922" rx="4.00002" ry="4.00002"/>
<polygon fill="#c8ea5e" stroke="#c8ea5e" points="310.264,-289.699 308.682,-278.847 307.576,-285.483 304.888,-281.267 304.888,-281.267 304.888,-281.267 307.576,-285.483 301.094,-283.686 310.264,-289.699 310.264,-289.699"/>
</g>
<!-- ActiveRecord::Base -->
<g id="node6" class="node"><title>ActiveRecord::Base</title>
<ellipse fill="none" stroke="black" cx="310" cy="-485" rx="83.2649" ry="18"/>
<text text-anchor="middle" x="310" y="-481.3" font-family="Times,serif" font-size="14.00">ActiveRecord::Base</text>
</g>
<!-- ActiveRecord::Base&#45;&gt;Category -->
<g id="edge3" class="edge"><title>ActiveRecord::Base&#45;&gt;Category</title>
<path fill="none" stroke="black" d="M290.116,-467.454C272.159,-452.51 244.899,-429.825 220.591,-409.597"/>
</g>
<!-- ActiveRecord::Base&#45;&gt;Join -->
<g id="edge4" class="edge"><title>ActiveRecord::Base&#45;&gt;Join</title>
<path fill="none" stroke="black" d="M355.054,-469.786C382.895,-458.404 416.38,-439.395 433,-410 453.125,-374.406 443.111,-357.619 433,-318 412.125,-236.205 353.841,-157.045 311.101,-107.314"/>
</g>
<!-- ActiveRecord::Base&#45;&gt;Post -->
<g id="edge6" class="edge"><title>ActiveRecord::Base&#45;&gt;Post</title>
<path fill="none" stroke="black" d="M301.681,-466.798C294.948,-452.075 285.821,-430.129 281,-410 270.927,-367.942 266.17,-319.591 263.934,-281.436"/>
</g>
<!-- ActiveRecord::Base&#45;&gt;User -->
<g id="edge8" class="edge"><title>ActiveRecord::Base&#45;&gt;User</title>
<path fill="none" stroke="black" d="M316.734,-466.95C322.623,-452.04 331.442,-429.71 339.328,-409.745"/>
</g>
</g>
</svg>
