<?xml version="1.0" encoding="UTF-8" standalone="no"?>
<!DOCTYPE svg PUBLIC "-//W3C//DTD SVG 1.1//EN"
 "http://www.w3.org/Graphics/SVG/1.1/DTD/svg11.dtd">
<!-- Generated by graphviz version 2.32.0 (20130801.1934)
 -->
<!-- Title: models_diagram Pages: 1 -->
<svg width="401pt" height="302pt"
 viewBox="0.00 0.00 401.00 302.00" xmlns="http://www.w3.org/2000/svg" xmlns:xlink="http://www.w3.org/1999/xlink">
<g id="graph0" class="graph" transform="scale(1 1) rotate(0) translate(4 298)">
<title>models_diagram</title>
<polygon fill="white" stroke="white" points="-4,5 -4,-298 398,-298 398,5 -4,5"/>
<!-- _diagram_info -->
<g id="node1" class="node"><title>_diagram_info</title>
<text text-anchor="start" x="8" y="-279.6" font-family="Times,serif" font-size="13.00">Models diagram</text>
<text text-anchor="start" x="8" y="-265.6" font-family="Times,serif" font-size="13.00">Date: Aug 14 2013 &#45; 09:54</text>
<text text-anchor="start" x="8" y="-251.6" font-family="Times,serif" font-size="13.00">Migration version: 20130814094438</text>
<text text-anchor="start" x="8" y="-237.6" font-family="Times,serif" font-size="13.00">Generated by RailRoady 1.1.1</text>
<text text-anchor="start" x="8" y="-223.6" font-family="Times,serif" font-size="13.00">http://railroady.prestonlee.com</text>
</g>
<!-- Category -->
<g id="node2" class="node"><title>Category</title>
<ellipse fill="none" stroke="black" cx="210" cy="-162" rx="44.2946" ry="18"/>
<text text-anchor="middle" x="210" y="-158.3" font-family="Times,serif" font-size="14.00">Category</text>
</g>
<!-- Join -->
<g id="node3" class="node"><title>Join</title>
<ellipse fill="none" stroke="black" cx="282" cy="-18" rx="27" ry="18"/>
<text text-anchor="middle" x="282" y="-14.3" font-family="Times,serif" font-size="14.00">Join</text>
</g>
<!-- Category&#45;&gt;Join -->
<g id="edge1" class="edge"><title>Category&#45;&gt;Join</title>
<path fill="none" stroke="#cf3f69" d="M218.395,-136.276C224.963,-118.054 234.833,-92.9094 246,-72 251.266,-62.1392 257.946,-51.8524 264.118,-42.9939"/>
<ellipse fill="none" stroke="#cf3f69" cx="216.953" cy="-140.35" rx="4.00001" ry="4.00001"/>
<polygon fill="#cf3f69" stroke="#cf3f69" points="264.241,-42.8207 273.712,-37.2935 267.145,-38.7504 270.049,-34.6801 270.049,-34.6801 270.049,-34.6801 267.145,-38.7504 266.385,-32.0666 264.241,-42.8207 264.241,-42.8207"/>
</g>
<!-- Post -->
<g id="node4" class="node"><title>Post</title>
<ellipse fill="none" stroke="black" cx="282" cy="-90" rx="27" ry="18"/>
<text text-anchor="middle" x="282" y="-86.3" font-family="Times,serif" font-size="14.00">Post</text>
</g>
<!-- Category&#45;&gt;Post -->
<g id="edge2" class="edge"><title>Category&#45;&gt;Post</title>
<path fill="none" stroke="#8ec7dd" d="M233.65,-138.007C242.116,-129.776 251.619,-120.538 259.944,-112.443"/>
<polygon fill="#8ec7dd" stroke="#8ec7dd" points="233.508,-138.145 223.201,-141.889 229.923,-141.631 226.338,-145.116 226.338,-145.116 226.338,-145.116 229.923,-141.631 229.475,-148.342 233.508,-138.145 233.508,-138.145"/>
<polygon fill="#8ec7dd" stroke="#8ec7dd" points="260.026,-112.363 270.333,-108.619 263.611,-108.878 267.196,-105.393 267.196,-105.393 267.196,-105.393 263.611,-108.878 264.059,-102.166 260.026,-112.363 260.026,-112.363"/>
</g>
<!-- Post&#45;&gt;Join -->
<g id="edge5" class="edge"><title>Post&#45;&gt;Join</title>
<path fill="none" stroke="#21a742" d="M282,-63.6398C282,-58.0629 282,-52.1319 282,-46.4761"/>
<ellipse fill="none" stroke="#21a742" cx="282" cy="-67.6966" rx="4" ry="4"/>
<polygon fill="#21a742" stroke="#21a742" points="282,-46.1043 286.5,-36.1043 282,-41.1043 282,-36.1043 282,-36.1043 282,-36.1043 282,-41.1043 277.5,-36.1044 282,-46.1043 282,-46.1043"/>
</g>
<!-- User -->
<g id="node5" class="node"><title>User</title>
<ellipse fill="none" stroke="black" cx="338" cy="-162" rx="27.4223" ry="18"/>
<text text-anchor="middle" x="338" y="-158.3" font-family="Times,serif" font-size="14.00">User</text>
</g>
<!-- User&#45;&gt;Post -->
<g id="edge7" class="edge"><title>User&#45;&gt;Post</title>
<path fill="none" stroke="#a073e0" d="M320.727,-139.409C314.333,-131.417 307.06,-122.325 300.557,-114.196"/>
<ellipse fill="none" stroke="#a073e0" cx="323.35" cy="-142.688" rx="4.00002" ry="4.00002"/>
<polygon fill="#a073e0" stroke="#a073e0" points="300.374,-113.968 297.641,-103.348 297.251,-110.064 294.127,-106.159 294.127,-106.159 294.127,-106.159 297.251,-110.064 290.614,-108.97 300.374,-113.968 300.374,-113.968"/>
</g>
<!-- ActiveRecord::Base -->
<g id="node6" class="node"><title>ActiveRecord::Base</title>
<ellipse fill="none" stroke="black" cx="310" cy="-255" rx="83.2649" ry="18"/>
<text text-anchor="middle" x="310" y="-251.3" font-family="Times,serif" font-size="14.00">ActiveRecord::Base</text>
</g>
<!-- ActiveRecord::Base&#45;&gt;Category -->
<g id="edge3" class="edge"><title>ActiveRecord::Base&#45;&gt;Category</title>
<path fill="none" stroke="black" d="M291.658,-237.309C273.277,-220.582 245.198,-195.03 227.223,-178.673"/>
</g>
<!-- ActiveRecord::Base&#45;&gt;Join -->
<g id="edge4" class="edge"><title>ActiveRecord::Base&#45;&gt;Join</title>
<path fill="none" stroke="black" d="M330.814,-237.345C346.013,-223.755 365.404,-203.08 374,-180 379.584,-165.006 378.991,-159.202 374,-144 358.786,-97.6623 319.095,-54.3623 297.145,-32.9685"/>
</g>
<!-- ActiveRecord::Base&#45;&gt;Post -->
<g id="edge6" class="edge"><title>ActiveRecord::Base&#45;&gt;Post</title>
<path fill="none" stroke="black" d="M307.056,-236.864C301.665,-205.477 290.266,-139.122 284.904,-107.906"/>
</g>
<!-- ActiveRecord::Base&#45;&gt;User -->
<g id="edge8" class="edge"><title>ActiveRecord::Base&#45;&gt;User</title>
<path fill="none" stroke="black" d="M315.267,-236.884C320.304,-220.511 327.854,-195.975 332.852,-179.732"/>
</g>
</g>
</svg>
